<svg id="레이어_1" data-name="레이어 1" xmlns="http://www.w3.org/2000/svg" viewBox="0 0 345.32 197.08"><defs><style>.cls-1,.cls-2{fill:#fff;}.cls-2{opacity:0.7;}</style></defs><title>logo-white</title><path class="cls-1" d="M1048.47,608.35a12.36,12.36,0,0,1-1.12,4.17,11.72,11.72,0,0,1-2.33,3.28,10.52,10.52,0,0,1-3.23,2.14,9.84,9.84,0,0,1-3.85.77,11.19,11.19,0,0,1-5.56-1.34,12.35,12.35,0,0,1-4-3.53,16.24,16.24,0,0,1-2.42-5,20.54,20.54,0,0,1,0-11.56,16.29,16.29,0,0,1,2.42-5,12.35,12.35,0,0,1,4-3.53,11.19,11.19,0,0,1,5.56-1.34,9.69,9.69,0,0,1,6.87,2.29,12.34,12.34,0,0,1,3.38,6.44l.09.39h5.62l-.07-.56c-.56-4.49-2.32-7.9-5.24-10.13a17.07,17.07,0,0,0-10.65-3.34,18.2,18.2,0,0,0-7.91,1.66,17.34,17.34,0,0,0-5.79,4.48,19.35,19.35,0,0,0-3.56,6.54,26.7,26.7,0,0,0,0,15.83,19.35,19.35,0,0,0,3.56,6.54,16.93,16.93,0,0,0,5.8,4.44,18.4,18.4,0,0,0,7.9,1.63,15.48,15.48,0,0,0,11-4c2.82-2.65,4.58-6.38,5.23-11.08l.08-.58h-5.68Z" transform="translate(-786.69 -441.07)"/><path class="cls-1" d="M1090.21,588.57a17.28,17.28,0,0,0-5.8-4.48,19.68,19.68,0,0,0-15.82,0,17.38,17.38,0,0,0-5.8,4.48,19.55,19.55,0,0,0-3.55,6.53,26.74,26.74,0,0,0,0,15.84,19.5,19.5,0,0,0,3.55,6.54,17,17,0,0,0,5.81,4.44,20,20,0,0,0,15.81,0,16.93,16.93,0,0,0,5.8-4.44,19.41,19.41,0,0,0,3.55-6.54,26.53,26.53,0,0,0,0-15.84A19.28,19.28,0,0,0,1090.21,588.57Zm-13.71,30.14a11.19,11.19,0,0,1-5.56-1.34,12.35,12.35,0,0,1-4-3.53,16,16,0,0,1-2.42-5,20.54,20.54,0,0,1,0-11.56,16.07,16.07,0,0,1,2.42-5,12.35,12.35,0,0,1,4-3.53,12.23,12.23,0,0,1,11.13,0,12.32,12.32,0,0,1,4,3.53,16.31,16.31,0,0,1,2.43,5,20.78,20.78,0,0,1,0,11.56,16.46,16.46,0,0,1-2.42,5,12.46,12.46,0,0,1-4,3.53A11.23,11.23,0,0,1,1076.5,618.71Z" transform="translate(-786.69 -441.07)"/><path class="cls-1" d="M1131.34,591.35a11.41,11.41,0,0,0-2.39-4.81,11.16,11.16,0,0,0-4.51-3,19.42,19.42,0,0,0-6.84-1.06,14.43,14.43,0,0,0-7.7,2.17,11.88,11.88,0,0,0-4.08,4.08v-5.15h-5.66v39h5.66V599.87a16,16,0,0,1,.89-5,12.09,12.09,0,0,1,2.26-4,10.26,10.26,0,0,1,3.51-2.59,11.31,11.31,0,0,1,4.75-.95,10.44,10.44,0,0,1,4.46.84,6.92,6.92,0,0,1,2.78,2.26,9.19,9.19,0,0,1,1.46,3.45,21.31,21.31,0,0,1,.43,4.42v24.21H1132V597.58A26.54,26.54,0,0,0,1131.34,591.35Z" transform="translate(-786.69 -441.07)"/><path class="cls-1" d="M1011.94,591h0a10.39,10.39,0,0,0-2-4.46,10.71,10.71,0,0,0-4.55-2.91,24.17,24.17,0,0,0-8.2-1.17,26.1,26.1,0,0,0-9,1.4,12.82,12.82,0,0,0-5.82,3.9c-1.33,1.59-2.32,3.45-2.73,7.06h5.8a8.57,8.57,0,0,1,3.36-5.87c1.67-1.21,4.13-1.77,7.38-1.77,3.5,0,6.22.78,8.08,2.42,1.43,1.27,2.07,3.38,2.07,6.22,0,.16,0,.48,0,1,0,.24,0,.52,0,.83v.33l-.3.11a63.14,63.14,0,0,1-12.28,2.36,45.75,45.75,0,0,0-6,1,16,16,0,0,0-4.76,2.16,10.86,10.86,0,0,0-3.39,3.77,10.69,10.69,0,0,0-1.29,5.18,10.3,10.3,0,0,0,3.42,7.93c2.26,2.06,5.53,3.11,9.88,3.11a20.53,20.53,0,0,0,7.36-1.3,24.34,24.34,0,0,0,6.72-4.11l.75-.62v5.13h5.84v-25.5a41.07,41.07,0,0,0-.31-6.18m-5.65,14.44a16.88,16.88,0,0,1-1.15,7,11,11,0,0,1-4.7,4.9,14.3,14.3,0,0,1-7.24,1.8,9.29,9.29,0,0,1-6.33-1.94,6.37,6.37,0,0,1,1.69-10.76,25.69,25.69,0,0,1,6.07-1.41,48.63,48.63,0,0,0,11-2.55l.64-.26Zm-54.75-22.11L941.67,598l-9.89-14.66H925L938.27,603,925,622.66h6.77L941.67,608l9.87,14.64h6.76L945,603l13.26-19.68Zm-134.89,7.53A12.87,12.87,0,0,0,804.4,583a17,17,0,0,0-8.37,1.88,16.21,16.21,0,0,0-5.48,4.8,19.14,19.14,0,0,0-3,6.54,29.43,29.43,0,0,0-.9,7.08,25.61,25.61,0,0,0,1.08,7.5,17.74,17.74,0,0,0,3.22,6.14,15.68,15.68,0,0,0,5.32,4.18,16.86,16.86,0,0,0,7.49,1.54c10.14,0,12.85-8.37,12.85-8.37v4.36a26.66,26.66,0,0,1-.67,6.11,12.88,12.88,0,0,1-2.17,4.85,10.72,10.72,0,0,1-3.81,3.18,12.52,12.52,0,0,1-5.6,1.14,19.07,19.07,0,0,1-3.44-.34,12.63,12.63,0,0,1-3.35-1.15,8.81,8.81,0,0,1-2.66-2.09,5.15,5.15,0,0,1-1.17-2.8h-5.53a9.43,9.43,0,0,0,1.55,4.67,11.5,11.5,0,0,0,3.7,3.44,16.57,16.57,0,0,0,5,1.91,25.44,25.44,0,0,0,5.49.61c6.21,0,10.66-1.57,13.49-4.64s4.3-7.76,4.3-14.13v-35.5h-5.16Zm-1,17h0a16.77,16.77,0,0,1-2.07,5,11.28,11.28,0,0,1-3.77,3.66,11,11,0,0,1-5.68,1.39,10.3,10.3,0,0,1-5.55-1.4,10.63,10.63,0,0,1-3.58-3.66,15.69,15.69,0,0,1-1.89-5,27.4,27.4,0,0,1-.54-5.4,23.1,23.1,0,0,1,.66-5.51,13.74,13.74,0,0,1,2.14-4.72,10.77,10.77,0,0,1,3.75-3.3,11.8,11.8,0,0,1,5.55-1.22,10.2,10.2,0,0,1,9,4.64,14.88,14.88,0,0,1,2,4.68,22.15,22.15,0,0,1,.62,5.2,24.17,24.17,0,0,1-.66,5.58m101.66-21.33a10.74,10.74,0,0,0-4.55-2.91,24.17,24.17,0,0,0-8.2-1.17,26.06,26.06,0,0,0-9,1.4,12.9,12.9,0,0,0-5.83,3.9c-1.32,1.59-2.3,3.45-2.72,7.06h5.8c.6-3.15,1.84-4.74,3.37-5.87s4.11-1.77,7.36-1.77c3.52,0,6.23.78,8.09,2.42,1.43,1.27,2.07,3.38,2.07,6.22v2.12l-.3.11a62.85,62.85,0,0,1-12.27,2.36,45.35,45.35,0,0,0-6,1,16.32,16.32,0,0,0-4.77,2.16,10.83,10.83,0,0,0-3.38,3.77,10.58,10.58,0,0,0-1.28,5.18,10.28,10.28,0,0,0,3.4,7.93c2.28,2.06,5.54,3.11,9.89,3.11a20.36,20.36,0,0,0,7.35-1.3,24.09,24.09,0,0,0,6.73-4.11l.75-.62v5.13h5.84v-25.5a39.08,39.08,0,0,0-.32-6.18,10.45,10.45,0,0,0-2-4.46m-3.61,18.9a16.54,16.54,0,0,1-1.16,7,10.9,10.9,0,0,1-4.68,4.9,14.35,14.35,0,0,1-7.24,1.8,9.3,9.3,0,0,1-6.34-1.94,6.25,6.25,0,0,1-2.23-4.89,6.38,6.38,0,0,1,1-3.49,6.24,6.24,0,0,1,2.89-2.38,26.08,26.08,0,0,1,6.07-1.41,48.61,48.61,0,0,0,11-2.55l.64-.26Zm-52.58-18.9h0a10.86,10.86,0,0,0-4.54-2.91,24.13,24.13,0,0,0-8.22-1.17,26,26,0,0,0-9,1.4,12.8,12.8,0,0,0-5.83,3.9c-1.33,1.59-2.32,3.45-2.72,7.06h5.79a8.57,8.57,0,0,1,3.37-5.87c1.66-1.21,4.12-1.77,7.36-1.78,3.51,0,6.18.84,8.08,2.43,2.58,2.15,2.07,8.34,2.07,8.34s-2.7,1.22-12.57,2.47a49.09,49.09,0,0,0-6,1,16.2,16.2,0,0,0-4.77,2.16,10.64,10.64,0,0,0-3.38,3.77,10.48,10.48,0,0,0-1.29,5.18,10.22,10.22,0,0,0,3.41,7.93c2.25,2,5.54,3.11,9.88,3.11a21.49,21.49,0,0,0,14.83-6v5.13h5.84v-25.5a40.79,40.79,0,0,0-.31-6.18,10.69,10.69,0,0,0-2-4.46m-3.62,18.9a16.88,16.88,0,0,1-1.15,7,10.93,10.93,0,0,1-4.69,4.9,14.32,14.32,0,0,1-7.23,1.8c-2.73,0-4.87-.63-6.35-1.94a6.28,6.28,0,0,1-2.23-4.89,6.36,6.36,0,0,1,1-3.5,6.28,6.28,0,0,1,2.89-2.37,27.72,27.72,0,0,1,6.08-1.41c9.32-1.48,11.66-2.73,11.66-2.73Zm14.85,17.24h5.89v-51h-5.89Zm92.81,0h5.89V583.31h-5.89Z" transform="translate(-786.69 -441.07)"/><rect class="cls-1" x="178.5" y="130.63" width="5.89" height="5.89"/><path class="cls-1" d="M945.56,517v28.18h8a5.79,5.79,0,0,1,11.57,0h8V517l-13.8-8Z" transform="translate(-786.69 -441.07)"/><path class="cls-1" d="M973.15,469.25V441.07h-8a5.79,5.79,0,1,1-11.57,0h-8v28.18l13.79,8Z" transform="translate(-786.69 -441.07)"/><path class="cls-1" d="M945.56,469.25l-24.41-14.1-4,6.94a5.79,5.79,0,0,1-5.78,10l-4,6.94,24.41,14.08,13.79-8Z" transform="translate(-786.69 -441.07)"/><path class="cls-1" d="M973.15,501.1V517l24.41,14.09,4-6.93a5.79,5.79,0,1,1,5.79-10l4-6.94-24.41-14.09Z" transform="translate(-786.69 -441.07)"/><path class="cls-1" d="M986.94,493.14l24.41-14.08-4-6.94a5.79,5.79,0,0,1-5.79-10l-4-6.94-24.41,14.1v15.93Z" transform="translate(-786.69 -441.07)"/><path class="cls-1" d="M931.77,493.14l-24.41,14.09,4,6.94a5.78,5.78,0,1,1,5.78,10l4,6.93L945.56,517V501.1Z" transform="translate(-786.69 -441.07)"/><path class="cls-1" d="M973.15,517v0Z" transform="translate(-786.69 -441.07)"/><path class="cls-2" d="M973.15,515.76a46.44,46.44,0,0,1,.63-7.15A12.56,12.56,0,0,1,977,502a75.89,75.89,0,0,1,8.18-7.54,20,20,0,0,1,1.74-1.28l-13.79,8Z" transform="translate(-786.69 -441.07)"/><path class="cls-1" d="M945.56,517v-1.27C945.57,516.55,945.56,517,945.56,517Z" transform="translate(-786.69 -441.07)"/><path class="cls-2" d="M945.56,515.76a46.44,46.44,0,0,0-.63-7.15,12.43,12.43,0,0,0-3.25-6.65,74.86,74.86,0,0,0-8.17-7.54c-.57-.45-1.14-.89-1.75-1.28l13.8,8Z" transform="translate(-786.69 -441.07)"/><path class="cls-2" d="M945.56,470.51a46.35,46.35,0,0,1-.63,7.16,12.31,12.31,0,0,1-3.25,6.63,72.08,72.08,0,0,1-8.17,7.55,17.89,17.89,0,0,1-1.75,1.29l13.8-8Z" transform="translate(-786.69 -441.07)"/><path class="cls-2" d="M973.15,470.51a46.35,46.35,0,0,0,.63,7.16A12.43,12.43,0,0,0,977,484.3a73,73,0,0,0,8.18,7.55,16.65,16.65,0,0,0,1.74,1.29l-13.79-8Z" transform="translate(-786.69 -441.07)"/><path class="cls-2" d="M945.56,517s4.67-3.09,13.79-3.09,13.8,3.09,13.8,3.09l-13.8-8Z" transform="translate(-786.69 -441.07)"/><path class="cls-2" d="M973.15,469.25s-4.66,3.09-13.8,3.09-13.79-3.09-13.79-3.09l13.79,8Z" transform="translate(-786.69 -441.07)"/></svg>